<mxfile host="app.diagrams.net" agent="Mozilla/5.0 (Windows NT 10.0; Win64; x64) AppleWebKit/537.36 (KHTML, like Gecko) Chrome/130.0.0.0 Safari/537.36" version="24.7.17">
  <diagram name="第 1 页" id="Lr8rNc75jEq_sfbISUg0">
    <mxGraphModel dx="1687" dy="908" grid="1" gridSize="10" guides="1" tooltips="1" connect="1" arrows="1" fold="1" page="1" pageScale="1" pageWidth="827" pageHeight="1169" math="0" shadow="0">
      <root>
        <mxCell id="0" />
        <mxCell id="1" parent="0" />
        <mxCell id="WvJ2tnsxohybZ3xUwnh2-2" value="&lt;font style=&quot;font-size: 20px;&quot;&gt;训练集&lt;/font&gt;" style="strokeWidth=2;html=1;shape=mxgraph.flowchart.database;whiteSpace=wrap;" vertex="1" parent="1">
          <mxGeometry x="189.5" y="10" width="100" height="90" as="geometry" />
        </mxCell>
        <mxCell id="WvJ2tnsxohybZ3xUwnh2-3" value="&lt;font style=&quot;font-size: 15px;&quot;&gt;时间段，周期段提取相似样本&lt;/font&gt;" style="strokeWidth=2;html=1;shape=mxgraph.flowchart.delay;whiteSpace=wrap;" vertex="1" parent="1">
          <mxGeometry x="369.5" y="20" width="130" height="70" as="geometry" />
        </mxCell>
        <mxCell id="WvJ2tnsxohybZ3xUwnh2-4" value="&lt;font style=&quot;font-size: 16px;&quot;&gt;更具不同的特征&lt;/font&gt;&lt;div&gt;&lt;font style=&quot;font-size: 16px;&quot;&gt;画出对应分布图&lt;/font&gt;&lt;/div&gt;" style="strokeWidth=2;html=1;shape=mxgraph.flowchart.direct_data;whiteSpace=wrap;" vertex="1" parent="1">
          <mxGeometry x="589.5" y="20" width="200" height="70" as="geometry" />
        </mxCell>
        <mxCell id="WvJ2tnsxohybZ3xUwnh2-5" value="" style="strokeWidth=2;html=1;shape=mxgraph.flowchart.multi-document;whiteSpace=wrap;" vertex="1" parent="1">
          <mxGeometry x="896.5" y="15" width="150" height="80" as="geometry" />
        </mxCell>
        <mxCell id="WvJ2tnsxohybZ3xUwnh2-6" style="edgeStyle=orthogonalEdgeStyle;rounded=0;orthogonalLoop=1;jettySize=auto;html=1;exitX=1;exitY=0.5;exitDx=0;exitDy=0;exitPerimeter=0;entryX=0;entryY=0.5;entryDx=0;entryDy=0;entryPerimeter=0;" edge="1" parent="1" source="WvJ2tnsxohybZ3xUwnh2-3" target="WvJ2tnsxohybZ3xUwnh2-4">
          <mxGeometry relative="1" as="geometry" />
        </mxCell>
        <mxCell id="WvJ2tnsxohybZ3xUwnh2-8" style="edgeStyle=orthogonalEdgeStyle;rounded=0;orthogonalLoop=1;jettySize=auto;html=1;exitX=1;exitY=0.5;exitDx=0;exitDy=0;exitPerimeter=0;entryX=0;entryY=0.5;entryDx=0;entryDy=0;entryPerimeter=0;" edge="1" parent="1" source="WvJ2tnsxohybZ3xUwnh2-4" target="WvJ2tnsxohybZ3xUwnh2-5">
          <mxGeometry relative="1" as="geometry" />
        </mxCell>
        <mxCell id="WvJ2tnsxohybZ3xUwnh2-18" style="edgeStyle=orthogonalEdgeStyle;rounded=0;orthogonalLoop=1;jettySize=auto;html=1;exitX=1;exitY=0.5;exitDx=0;exitDy=0;exitPerimeter=0;entryX=0;entryY=0.5;entryDx=0;entryDy=0;entryPerimeter=0;" edge="1" parent="1" source="WvJ2tnsxohybZ3xUwnh2-2" target="WvJ2tnsxohybZ3xUwnh2-3">
          <mxGeometry relative="1" as="geometry" />
        </mxCell>
        <mxCell id="WvJ2tnsxohybZ3xUwnh2-21" value="" style="edgeStyle=orthogonalEdgeStyle;rounded=0;orthogonalLoop=1;jettySize=auto;html=1;" edge="1" parent="1" source="WvJ2tnsxohybZ3xUwnh2-19" target="WvJ2tnsxohybZ3xUwnh2-20">
          <mxGeometry relative="1" as="geometry" />
        </mxCell>
        <mxCell id="WvJ2tnsxohybZ3xUwnh2-19" value="&lt;font style=&quot;font-size: 20px;&quot;&gt;训练集&lt;/font&gt;" style="strokeWidth=2;html=1;shape=mxgraph.flowchart.database;whiteSpace=wrap;fillColor=#fff2cc;strokeColor=#d6b656;" vertex="1" parent="1">
          <mxGeometry x="120" y="360" width="100" height="90" as="geometry" />
        </mxCell>
        <mxCell id="WvJ2tnsxohybZ3xUwnh2-22" value="" style="edgeStyle=orthogonalEdgeStyle;rounded=0;orthogonalLoop=1;jettySize=auto;html=1;entryX=0;entryY=0.5;entryDx=0;entryDy=0;entryPerimeter=0;" edge="1" parent="1" source="WvJ2tnsxohybZ3xUwnh2-20" target="WvJ2tnsxohybZ3xUwnh2-29">
          <mxGeometry relative="1" as="geometry">
            <mxPoint x="510" y="405.5" as="targetPoint" />
          </mxGeometry>
        </mxCell>
        <mxCell id="WvJ2tnsxohybZ3xUwnh2-20" value="&lt;font style=&quot;font-size: 15px;&quot;&gt;利用注意力机制得到每个时间点的上下文特征向量&lt;/font&gt;" style="strokeWidth=2;html=1;shape=mxgraph.flowchart.delay;whiteSpace=wrap;fillColor=#dae8fc;strokeColor=#6c8ebf;" vertex="1" parent="1">
          <mxGeometry x="300" y="372" width="130" height="66" as="geometry" />
        </mxCell>
        <mxCell id="WvJ2tnsxohybZ3xUwnh2-34" value="" style="edgeStyle=orthogonalEdgeStyle;rounded=0;orthogonalLoop=1;jettySize=auto;html=1;" edge="1" parent="1" source="WvJ2tnsxohybZ3xUwnh2-29" target="WvJ2tnsxohybZ3xUwnh2-33">
          <mxGeometry relative="1" as="geometry" />
        </mxCell>
        <mxCell id="WvJ2tnsxohybZ3xUwnh2-29" value="&lt;span style=&quot;font-size: 15px;&quot;&gt;特征向量利用SVM得到每个族分类&lt;/span&gt;" style="strokeWidth=2;html=1;shape=mxgraph.flowchart.direct_data;whiteSpace=wrap;fillColor=#e1d5e7;strokeColor=#9673a6;" vertex="1" parent="1">
          <mxGeometry x="550" y="370.5" width="200" height="70" as="geometry" />
        </mxCell>
        <mxCell id="WvJ2tnsxohybZ3xUwnh2-30" value="" style="strokeWidth=2;html=1;shape=mxgraph.flowchart.multi-document;whiteSpace=wrap;fillColor=#0050ef;fontColor=#ffffff;strokeColor=#001DBC;" vertex="1" parent="1">
          <mxGeometry x="1160" y="365" width="150" height="80" as="geometry" />
        </mxCell>
        <mxCell id="WvJ2tnsxohybZ3xUwnh2-31" style="edgeStyle=orthogonalEdgeStyle;rounded=0;orthogonalLoop=1;jettySize=auto;html=1;exitX=1;exitY=0.5;exitDx=0;exitDy=0;exitPerimeter=0;entryX=0;entryY=0.5;entryDx=0;entryDy=0;entryPerimeter=0;" edge="1" parent="1" source="WvJ2tnsxohybZ3xUwnh2-33" target="WvJ2tnsxohybZ3xUwnh2-30">
          <mxGeometry relative="1" as="geometry" />
        </mxCell>
        <mxCell id="WvJ2tnsxohybZ3xUwnh2-33" value="&lt;font style=&quot;font-size: 16px;&quot;&gt;更具不同的族&lt;/font&gt;&lt;div&gt;&lt;font style=&quot;font-size: 16px;&quot;&gt;画出对应分布图&lt;/font&gt;&lt;/div&gt;" style="strokeWidth=2;html=1;shape=mxgraph.flowchart.direct_data;whiteSpace=wrap;fillColor=#1ba1e2;fontColor=#ffffff;strokeColor=#006EAF;" vertex="1" parent="1">
          <mxGeometry x="810" y="370" width="200" height="70" as="geometry" />
        </mxCell>
        <mxCell id="WvJ2tnsxohybZ3xUwnh2-37" value="" style="strokeWidth=2;html=1;shape=mxgraph.flowchart.annotation_2;align=left;labelPosition=right;pointerEvents=1;rotation=90;" vertex="1" parent="1">
          <mxGeometry x="603.75" y="410" width="76.25" height="131.25" as="geometry" />
        </mxCell>
        <mxCell id="WvJ2tnsxohybZ3xUwnh2-43" value="" style="edgeStyle=orthogonalEdgeStyle;rounded=0;orthogonalLoop=1;jettySize=auto;html=1;" edge="1" parent="1" source="WvJ2tnsxohybZ3xUwnh2-35" target="WvJ2tnsxohybZ3xUwnh2-42">
          <mxGeometry relative="1" as="geometry" />
        </mxCell>
        <mxCell id="WvJ2tnsxohybZ3xUwnh2-35" value="&lt;font style=&quot;font-size: 15px;&quot;&gt;分布A的特征向量&lt;/font&gt;" style="strokeWidth=2;html=1;shape=mxgraph.flowchart.database;whiteSpace=wrap;fillColor=#d5e8d4;strokeColor=#82b366;" vertex="1" parent="1">
          <mxGeometry x="540" y="510" width="80" height="80" as="geometry" />
        </mxCell>
        <mxCell id="WvJ2tnsxohybZ3xUwnh2-49" style="edgeStyle=orthogonalEdgeStyle;rounded=0;orthogonalLoop=1;jettySize=auto;html=1;exitX=0.5;exitY=1;exitDx=0;exitDy=0;exitPerimeter=0;entryX=0.5;entryY=0;entryDx=0;entryDy=0;" edge="1" parent="1" source="WvJ2tnsxohybZ3xUwnh2-41" target="WvJ2tnsxohybZ3xUwnh2-42">
          <mxGeometry relative="1" as="geometry" />
        </mxCell>
        <mxCell id="WvJ2tnsxohybZ3xUwnh2-51" style="edgeStyle=orthogonalEdgeStyle;rounded=0;orthogonalLoop=1;jettySize=auto;html=1;exitX=0.5;exitY=1;exitDx=0;exitDy=0;exitPerimeter=0;entryX=0.5;entryY=0;entryDx=0;entryDy=0;" edge="1" parent="1" source="WvJ2tnsxohybZ3xUwnh2-41" target="WvJ2tnsxohybZ3xUwnh2-50">
          <mxGeometry relative="1" as="geometry" />
        </mxCell>
        <mxCell id="WvJ2tnsxohybZ3xUwnh2-41" value="&lt;font style=&quot;font-size: 15px;&quot;&gt;分布B的特征向量&lt;/font&gt;" style="strokeWidth=2;html=1;shape=mxgraph.flowchart.database;whiteSpace=wrap;fillColor=#ffe6cc;strokeColor=#d79b00;" vertex="1" parent="1">
          <mxGeometry x="670" y="510" width="80" height="80" as="geometry" />
        </mxCell>
        <mxCell id="WvJ2tnsxohybZ3xUwnh2-42" value="&lt;font style=&quot;font-size: 15px;&quot;&gt;领域自适应模型A&lt;/font&gt;" style="shape=process;whiteSpace=wrap;html=1;backgroundOutline=1;strokeWidth=2;fillColor=#d5e8d4;strokeColor=#82b366;" vertex="1" parent="1">
          <mxGeometry x="440" y="670" width="120" height="60" as="geometry" />
        </mxCell>
        <mxCell id="WvJ2tnsxohybZ3xUwnh2-50" value="&lt;font style=&quot;font-size: 15px;&quot;&gt;领域自适应模型B&lt;/font&gt;" style="shape=process;whiteSpace=wrap;html=1;backgroundOutline=1;strokeWidth=2;fillColor=#ffe6cc;strokeColor=#d79b00;" vertex="1" parent="1">
          <mxGeometry x="720" y="670" width="120" height="60" as="geometry" />
        </mxCell>
        <mxCell id="WvJ2tnsxohybZ3xUwnh2-54" value="" style="edgeStyle=orthogonalEdgeStyle;rounded=0;orthogonalLoop=1;jettySize=auto;html=1;" edge="1" parent="1" source="WvJ2tnsxohybZ3xUwnh2-52" target="WvJ2tnsxohybZ3xUwnh2-53">
          <mxGeometry relative="1" as="geometry" />
        </mxCell>
        <mxCell id="WvJ2tnsxohybZ3xUwnh2-52" value="&lt;font style=&quot;font-size: 20px;&quot;&gt;测试集&lt;/font&gt;" style="strokeWidth=2;html=1;shape=mxgraph.flowchart.database;whiteSpace=wrap;fillColor=#f8cecc;strokeColor=#b85450;" vertex="1" parent="1">
          <mxGeometry x="89.5" y="910" width="100" height="90" as="geometry" />
        </mxCell>
        <mxCell id="WvJ2tnsxohybZ3xUwnh2-56" value="" style="edgeStyle=orthogonalEdgeStyle;rounded=0;orthogonalLoop=1;jettySize=auto;html=1;" edge="1" parent="1" source="WvJ2tnsxohybZ3xUwnh2-53" target="WvJ2tnsxohybZ3xUwnh2-55">
          <mxGeometry relative="1" as="geometry" />
        </mxCell>
        <mxCell id="WvJ2tnsxohybZ3xUwnh2-53" value="&lt;font style=&quot;font-size: 15px;&quot;&gt;利用注意力机制得到每个时间点的上下文特征向量&lt;/font&gt;" style="strokeWidth=2;html=1;shape=mxgraph.flowchart.delay;whiteSpace=wrap;fillColor=#dae8fc;strokeColor=#6c8ebf;" vertex="1" parent="1">
          <mxGeometry x="239.5" y="922" width="130" height="66" as="geometry" />
        </mxCell>
        <mxCell id="WvJ2tnsxohybZ3xUwnh2-55" value="&lt;span style=&quot;font-size: 15px;&quot;&gt;特征向量利用SVM得到对应分布&lt;/span&gt;" style="strokeWidth=2;html=1;shape=mxgraph.flowchart.direct_data;whiteSpace=wrap;fillColor=#e1d5e7;strokeColor=#9673a6;" vertex="1" parent="1">
          <mxGeometry x="469.5" y="920" width="200" height="70" as="geometry" />
        </mxCell>
        <mxCell id="WvJ2tnsxohybZ3xUwnh2-61" style="edgeStyle=orthogonalEdgeStyle;rounded=0;orthogonalLoop=1;jettySize=auto;html=1;exitX=1;exitY=0.5;exitDx=0;exitDy=0;exitPerimeter=0;" edge="1" parent="1" source="WvJ2tnsxohybZ3xUwnh2-57">
          <mxGeometry relative="1" as="geometry">
            <mxPoint x="879.5" y="910" as="targetPoint" />
          </mxGeometry>
        </mxCell>
        <mxCell id="WvJ2tnsxohybZ3xUwnh2-57" value="&lt;font style=&quot;font-size: 15px;&quot;&gt;分布A的特征向量&lt;/font&gt;" style="strokeWidth=2;html=1;shape=mxgraph.flowchart.database;whiteSpace=wrap;fillColor=#d5e8d4;strokeColor=#82b366;" vertex="1" parent="1">
          <mxGeometry x="729.5" y="870" width="80" height="80" as="geometry" />
        </mxCell>
        <mxCell id="WvJ2tnsxohybZ3xUwnh2-64" value="" style="edgeStyle=orthogonalEdgeStyle;rounded=0;orthogonalLoop=1;jettySize=auto;html=1;" edge="1" parent="1" source="WvJ2tnsxohybZ3xUwnh2-58" target="WvJ2tnsxohybZ3xUwnh2-63">
          <mxGeometry relative="1" as="geometry" />
        </mxCell>
        <mxCell id="WvJ2tnsxohybZ3xUwnh2-58" value="&lt;font style=&quot;font-size: 15px;&quot;&gt;分布B的特征向量&lt;/font&gt;" style="strokeWidth=2;html=1;shape=mxgraph.flowchart.database;whiteSpace=wrap;fillColor=#ffe6cc;strokeColor=#d79b00;" vertex="1" parent="1">
          <mxGeometry x="729.5" y="988" width="80" height="80" as="geometry" />
        </mxCell>
        <mxCell id="WvJ2tnsxohybZ3xUwnh2-59" style="edgeStyle=orthogonalEdgeStyle;rounded=0;orthogonalLoop=1;jettySize=auto;html=1;exitX=1;exitY=0.5;exitDx=0;exitDy=0;exitPerimeter=0;entryX=0;entryY=0.5;entryDx=0;entryDy=0;entryPerimeter=0;" edge="1" parent="1" source="WvJ2tnsxohybZ3xUwnh2-55" target="WvJ2tnsxohybZ3xUwnh2-57">
          <mxGeometry relative="1" as="geometry" />
        </mxCell>
        <mxCell id="WvJ2tnsxohybZ3xUwnh2-60" style="edgeStyle=orthogonalEdgeStyle;rounded=0;orthogonalLoop=1;jettySize=auto;html=1;exitX=1;exitY=0.5;exitDx=0;exitDy=0;exitPerimeter=0;entryX=0;entryY=0.5;entryDx=0;entryDy=0;entryPerimeter=0;" edge="1" parent="1" source="WvJ2tnsxohybZ3xUwnh2-55" target="WvJ2tnsxohybZ3xUwnh2-58">
          <mxGeometry relative="1" as="geometry" />
        </mxCell>
        <mxCell id="WvJ2tnsxohybZ3xUwnh2-66" value="" style="edgeStyle=orthogonalEdgeStyle;rounded=0;orthogonalLoop=1;jettySize=auto;html=1;" edge="1" parent="1" source="WvJ2tnsxohybZ3xUwnh2-62" target="WvJ2tnsxohybZ3xUwnh2-65">
          <mxGeometry relative="1" as="geometry" />
        </mxCell>
        <mxCell id="WvJ2tnsxohybZ3xUwnh2-62" value="&lt;font style=&quot;font-size: 15px;&quot;&gt;领域自适应模型A&lt;/font&gt;" style="shape=process;whiteSpace=wrap;html=1;backgroundOutline=1;strokeWidth=2;fillColor=#d5e8d4;strokeColor=#82b366;" vertex="1" parent="1">
          <mxGeometry x="879.5" y="880" width="120" height="60" as="geometry" />
        </mxCell>
        <mxCell id="WvJ2tnsxohybZ3xUwnh2-68" value="" style="edgeStyle=orthogonalEdgeStyle;rounded=0;orthogonalLoop=1;jettySize=auto;html=1;" edge="1" parent="1" source="WvJ2tnsxohybZ3xUwnh2-63" target="WvJ2tnsxohybZ3xUwnh2-67">
          <mxGeometry relative="1" as="geometry" />
        </mxCell>
        <mxCell id="WvJ2tnsxohybZ3xUwnh2-63" value="&lt;font style=&quot;font-size: 15px;&quot;&gt;领域自适应模型B&lt;/font&gt;" style="shape=process;whiteSpace=wrap;html=1;backgroundOutline=1;strokeWidth=2;fillColor=#ffe6cc;strokeColor=#d79b00;" vertex="1" parent="1">
          <mxGeometry x="879.5" y="998" width="120" height="60" as="geometry" />
        </mxCell>
        <mxCell id="WvJ2tnsxohybZ3xUwnh2-70" value="" style="edgeStyle=orthogonalEdgeStyle;rounded=0;orthogonalLoop=1;jettySize=auto;html=1;" edge="1" parent="1" source="WvJ2tnsxohybZ3xUwnh2-65" target="WvJ2tnsxohybZ3xUwnh2-69">
          <mxGeometry relative="1" as="geometry" />
        </mxCell>
        <mxCell id="WvJ2tnsxohybZ3xUwnh2-65" value="&lt;font style=&quot;font-size: 18px;&quot;&gt;预测结果&lt;/font&gt;" style="ellipse;whiteSpace=wrap;html=1;strokeWidth=2;fillColor=#d5e8d4;strokeColor=#82b366;" vertex="1" parent="1">
          <mxGeometry x="1069.5" y="870" width="90" height="80" as="geometry" />
        </mxCell>
        <mxCell id="WvJ2tnsxohybZ3xUwnh2-71" value="" style="edgeStyle=orthogonalEdgeStyle;rounded=0;orthogonalLoop=1;jettySize=auto;html=1;" edge="1" parent="1" source="WvJ2tnsxohybZ3xUwnh2-67" target="WvJ2tnsxohybZ3xUwnh2-69">
          <mxGeometry relative="1" as="geometry" />
        </mxCell>
        <mxCell id="WvJ2tnsxohybZ3xUwnh2-67" value="&lt;font style=&quot;font-size: 18px;&quot;&gt;预测结果&lt;/font&gt;" style="ellipse;whiteSpace=wrap;html=1;strokeWidth=2;fillColor=#ffe6cc;strokeColor=#d79b00;" vertex="1" parent="1">
          <mxGeometry x="1069.5" y="988" width="90" height="80" as="geometry" />
        </mxCell>
        <mxCell id="WvJ2tnsxohybZ3xUwnh2-69" value="&lt;font style=&quot;font-size: 15px;&quot;&gt;加权平均得到最终值&lt;/font&gt;" style="rounded=1;whiteSpace=wrap;html=1;strokeWidth=2;fillColor=#f8cecc;strokeColor=#b85450;" vertex="1" parent="1">
          <mxGeometry x="1210.5" y="950" width="120" height="60" as="geometry" />
        </mxCell>
      </root>
    </mxGraphModel>
  </diagram>
</mxfile>
